HIERARCHY
ROOT Hips
{
  OFFSET 298.511 104.298 308
  CHANNELS 6 Xposition Yposition Zposition Zrotation Xrotation Yrotation
  JOINT RightUpLeg
  {
    OFFSET -8.9458 -8.66707 0.101652
    CHANNELS 3 Zrotation Xrotation Yrotation
    JOINT RightLeg
    {
      OFFSET 0 -44.4227 1.3727
      CHANNELS 3 Zrotation Xrotation Yrotation
      JOINT RightFoot
      {
        OFFSET 0.253549 -42.0924 -1.46059
        CHANNELS 3 Zrotation Xrotation Yrotation
        JOINT RightToes
        {
          OFFSET 0.04 -4.41509 8.4991
          CHANNELS 3 Zrotation Xrotation Yrotation
          End Site
          {
            OFFSET -0.08 -0.137448 9.77979
          }
        }
      }
    }
  }
  JOINT Spine
  {
    OFFSET 0 11.8905 0
    CHANNELS 3 Zrotation Xrotation Yrotation
    JOINT Spine1
    {
      OFFSET 0 25.6574 0.127663
      CHANNELS 3 Zrotation Xrotation Yrotation
      JOINT HEad
      {
        OFFSET 0 8.73416 0.011341
        CHANNELS 3 Zrotation Xrotation Yrotation
        End Site
        {
          OFFSET -0.29 12.7742 2.51395
        }
      }
      JOINT LeftShoulder1
      {
        OFFSET 8.99 -0.362252 -0.22
        CHANNELS 3 Zrotation Xrotation Yrotation
        JOINT LeftArm
        {
          OFFSET 10.2827 -0.00338 0.322123
          CHANNELS 3 Zrotation Xrotation Yrotation
          JOINT LeftForeArm
          {
            OFFSET 32.7669 0.099144 -1.42434
            CHANNELS 3 Zrotation Xrotation Yrotation
            JOINT LeftHand
            {
              OFFSET 27.5643 0.085362 1.02216
              CHANNELS 3 Zrotation Xrotation Yrotation
              End Site
              {
                OFFSET 16.7443 -0.6 1.50291
              }
            }
          }
        }
      }
      JOINT RightShoulder
      {
        OFFSET -8.99 -0.362252 -0.22
        CHANNELS 3 Zrotation Xrotation Yrotation
        JOINT RightArm
        {
          OFFSET -10.2827 -0.00338 0.322123
          CHANNELS 3 Zrotation Xrotation Yrotation
          JOINT RightForeArm
          {
            OFFSET -32.8971 0.099144 -1.42434
            CHANNELS 3 Zrotation Xrotation Yrotation
            JOINT RightHand
            {
              OFFSET -27.4921 0.085362 1.02216
              CHANNELS 3 Zrotation Xrotation Yrotation
              End Site
              {
                OFFSET -16.6312 -0.6 1.50291
              }
            }
          }
        }
      }
    }
  }
  JOINT LeftUpLeg
  {
    OFFSET 8.9458 -8.66707 0.101652
    CHANNELS 3 Zrotation Xrotation Yrotation
    JOINT LeftLeg
    {
      OFFSET 0 -44.4227 1.3727
      CHANNELS 3 Zrotation Xrotation Yrotation
      JOINT LeftFoot
      {
        OFFSET -0.253549 -42.0924 -1.46059
        CHANNELS 3 Zrotation Xrotation Yrotation
        JOINT LeftToes
        {
          OFFSET -0.04 -4.41509 8.4991
          CHANNELS 3 Zrotation Xrotation Yrotation
          End Site
          {
            OFFSET 0.08 -0.047448 9.77979
          }
        }
      }
    }
  }
}
MOTION
Frames:	14
Frame Time:	0.0166667
92.621	104.508	-198.996	-8.80366	-41.8484	84.0007	-73.0747	-41.7776	-49.0785	53.927	65.7592	-40.3934	4.72199	20.7629	-25.7679	0.0462048	0.000533964	0.662642	-1.03961	0.290946	1.45138	-2.08634	0.558203	2.90769	10.6403	23.699	49.4725	3.18E-15	9.94E-16	1.59E-15	-41.1418	37.505	29.1094	19.8226	22.8383	-133.071	45.6818	-2.22396	-18.982	3.18E-15	9.94E-16	1.59E-15	58.6804	51.1447	-45.3705	-38.5006	17.2751	127.81	-43.588	0.638164	16.2192	55.1397	-20.1393	35.621	4.753	28.1316	-8.49361	-22.9322	-23.6713	-7.45072	1.91E-14	2.78E-14	9.54E-15
93.004	104.571	-199.533	-8.45444	-41.254	84.9166	-73.1897	-42.9445	-49.908	52.3145	64.1914	-39.6024	3.92082	19.3078	-26.1994	0.0462048	0.000533964	0.662642	-1.06743	0.224216	1.42797	-2.14018	0.424507	2.85974	10.6074	23.8095	48.8312	3.18E-15	-8.95E-16	-1.19E-15	-41.0882	37.2445	28.9017	19.5882	23.0824	-132.975	45.6166	-2.18172	-18.9185	3.18E-15	-8.95E-16	-1.19E-15	58.6835	51.1231	-45.0295	-38.8239	17.0089	127.537	-43.7599	0.388788	16.2245	53.8723	-20.2837	34.9694	4.63276	28.1093	-8.24063	-23.1493	-24.7666	-8.54178	1.27E-14	2.46E-14	9.54E-15
93.405	104.618	-200.145	-7.96034	-40.6598	85.8708	-73.2376	-44.3748	-50.4124	51.3249	62.8188	-39.4805	3.20924	17.9674	-26.5829	0.0462048	0.000533964	0.662642	-1.09396	0.172097	1.4406	-2.19195	0.31939	2.88408	10.5385	23.8637	48.2379	9.54E-15	-1.32E-15	0.00E+00	-41.0018	36.9264	28.6849	19.5702	23.2291	-133.029	45.5705	-2.14582	-18.9009	9.54E-15	-1.32E-15	0.00E+00	58.3698	51.0589	-44.4823	-39.1059	16.9137	127.416	-43.6795	0.272241	16.241	52.5279	-20.2568	34.21	4.49344	28.0698	-8.15707	-23.1639	-26.0407	-9.28197	1.59E-14	3.70E-14	9.54E-15
93.804	104.698	-200.869	-7.00632	-40.0866	87.0934	-72.9174	-45.9064	-50.7125	50.505	62.0249	-39.1469	2.72539	16.6231	-27.2034	0.0462048	0.000533964	0.662642	-1.11666	0.173614	1.4775	-2.23749	0.32113	2.95795	10.4811	23.9608	47.6673	-3.18E-15	-1.09E-15	-2.98E-16	-41.0125	36.6687	28.6492	19.7234	23.2945	-133.169	45.5187	-2.14102	-18.913	-3.18E-15	-1.09E-15	-2.98E-16	57.9977	51.0244	-44.0013	-39.4072	16.896	127.494	-43.4989	0.302333	16.2445	50.9964	-19.9434	33.3708	4.47385	28.0163	-8.28693	-22.9483	-27.2982	-9.50438	1.59E-14	3.22E-14	6.36E-15
94.184	104.811	-201.658	-6.09808	-39.4832	88.4672	-72.6742	-47.525	-51.268	50.2163	61.6937	-39.1912	2.36868	15.2926	-27.9024	0.0462048	0.000533964	0.662642	-1.12992	0.168758	1.4914	-2.26392	0.310803	2.98569	10.3826	23.9322	47.0997	3.18E-15	-7.95E-16	-7.95E-16	-41.0403	36.4263	28.5627	19.8698	23.4305	-133.294	45.4633	-2.16433	-18.9212	3.18E-15	-7.95E-16	-7.95E-16	57.6065	50.9916	-43.5441	-39.6815	16.8548	127.639	-43.3934	0.376012	16.2307	49.3898	-19.7423	32.63	4.46682	27.8651	-8.13428	-22.8452	-28.0871	-10.1506	1.43E-14	3.02E-14	9.54E-15
94.554	104.904	-202.4	-5.66644	-38.8636	89.7676	-72.8679	-49.22	-52.5948	50.2666	61.7401	-39.4611	2.14239	14.0969	-28.4906	0.0462048	0.000533964	0.662642	-1.13974	0.119136	1.46826	-2.2822	0.21179	2.93845	10.2605	23.6485	46.5363	4.97E-32	2.39E-15	-1.19E-15	-40.9996	36.1624	28.2288	19.9314	23.6272	-133.329	45.4541	-2.17499	-18.9182	4.97E-32	2.39E-15	-1.19E-15	57.2455	50.9764	-42.9909	-39.9316	16.6912	127.668	-43.4153	0.404003	16.1742	47.8644	-19.9955	31.8948	4.42506	27.7068	-8.02629	-22.77	-28.6262	-10.9541	1.43E-14	3.58E-14	6.36E-15
94.912	104.955	-203.081	-5.29194	-38.2779	91.0897	-73.0302	-51.1078	-54.2007	50.4763	62.1843	-39.7984	2.02709	13.0339	-29.1317	0.0462048	0.000533964	0.662642	-1.14498	0.0722344	1.44159	-2.29146	0.118412	2.88417	10.1206	23.3499	46.0283	3.18E-15	7.95E-16	3.58E-15	-41.0307	36.0281	27.9093	19.9096	23.7997	-133.257	45.483	-2.19327	-18.951	3.18E-15	7.95E-16	3.58E-15	57.1153	51.152	-42.5399	-40.1426	16.4515	127.503	-43.5272	0.40459	16.0943	46.4097	-20.3632	31.2069	4.51531	27.6682	-8.39752	-22.3632	-29.4878	-10.8509	1.59E-14	2.94E-14	3.18E-15
95.261	105.006	-203.78	-4.43035	-37.6325	92.6922	-72.619	-53.122	-55.2468	50.7994	62.9083	-40.1445	2.1749	11.9322	-29.7679	0.0462048	0.000533964	0.662642	-1.1688	0.0818951	1.42943	-2.33932	0.137377	2.86008	9.93019	23.3656	45.6343	0.00E+00	7.95E-16	0.00E+00	-41.2933	36.2283	27.9022	19.8783	23.7934	-133.105	45.521	-2.22126	-19.0091	0.00E+00	7.95E-16	0.00E+00	57.4349	51.6093	-42.5198	-40.32	16.2157	127.201	-43.7196	0.412857	15.9954	44.7852	-20.3737	30.3482	4.66843	27.6189	-8.6886	-22.0971	-30.1758	-11.4166	1.27E-14	3.02E-14	3.18E-15
95.623	105.064	-204.534	-3.565	-36.927	94.359	-71.9477	-55.3051	-56.3227	51.0081	63.9078	-40.2386	2.5195	10.7493	-30.451	0.0462048	0.000533964	0.662642	-1.20199	0.0835187	1.39605	-2.4057	0.140495	2.79339	9.66546	23.4544	45.4312	-3.18E-15	0.00E+00	0.00E+00	-41.6996	36.5787	28.0874	19.875	23.5519	-132.937	45.5406	-2.21013	-19.0708	-3.18E-15	0.00E+00	0.00E+00	57.9233	52.1459	-42.6776	-40.4705	15.9979	126.848	-43.9527	0.420799	15.8764	43.052	-20.3015	29.4096	4.76157	27.4938	-8.71296	-21.8435	-30.7497	-12.2569	1.75E-14	3.10E-14	1.27E-14
96.009	105.101	-205.332	-3.09212	-36.2198	95.8475	-71.4795	-57.7179	-57.706	51.6858	64.8768	-40.8626	2.90813	9.49101	-31.001	0.0462048	0.000533964	0.662642	-1.23725	0.0626901	1.34992	-2.47567	0.0989865	2.70074	9.35124	23.31	45.3727	-3.18E-15	3.18E-15	2.39E-15	-42.0074	36.7473	28.1651	19.9191	23.2424	-132.841	45.5237	-2.16482	-19.09	-3.18E-15	3.18E-15	2.39E-15	58.1001	52.4906	-42.5543	-40.5762	15.7974	126.587	-44.1906	0.493957	15.728	41.3542	-20.4811	28.6898	4.89811	27.4219	-8.88377	-21.4352	-31.3904	-12.7336	1.51E-14	3.62E-14	3.18E-15
96.368	105.123	-206.131	-2.44438	-35.3353	97.653	-71.0224	-59.7597	-58.5564	53.4307	65.4275	-42.5598	3.43029	8.27332	-31.0951	0.0462048	0.000533964	0.662642	-1.30546	0.0729635	1.27862	-2.61226	0.119546	2.55843	9.06538	23.2614	45.2144	-3.18E-15	-2.39E-15	-2.39E-15	-42.2434	36.9305	28.2294	19.9603	23.0927	-132.838	45.5206	-2.10279	-19.0807	-3.18E-15	-2.39E-15	-2.39E-15	58.3136	52.7291	-42.6373	-40.6036	15.5825	126.412	-44.3881	0.538899	15.5828	39.4421	-20.6466	27.7146	5.00127	27.4146	-9.07874	-20.9831	-32.0181	-12.8028	1.11E-14	3.70E-14	6.36E-15
96.737	105.147	-206.937	-1.68533	-34.3608	99.7051	-70.3197	-61.6351	-58.6607	55.7856	65.4225	-44.9167	4.05165	7.03062	-30.6681	0.0462048	0.000533964	0.662642	-1.37506	0.0935281	1.20166	-2.75181	0.160959	2.40509	8.8299	23.3601	44.8709	-3.18E-15	-7.95E-16	1.59E-15	-42.3929	37.1691	28.2237	19.9757	23.1581	-132.878	45.5819	-2.03211	-19.0549	-3.18E-15	-7.95E-16	1.59E-15	58.6657	52.8659	-42.9975	-40.5415	15.3497	126.234	-44.5278	0.529147	15.4977	37.4534	-20.7081	26.6312	4.98224	27.3167	-8.9973	-20.8562	-32.2779	-13.4832	1.19E-14	3.50E-14	3.18E-15
97.1	105.162	-207.738	-0.935632	-33.4033	101.907	-69.1017	-63.5482	-58.455	57.6308	65.2898	-46.7199	4.66684	5.92998	-30.7441	0.0462048	0.000533964	0.662642	-1.41777	0.110932	1.10937	-2.83747	0.197147	2.22101	8.63683	23.5642	44.375	-3.18E-15	0.00E+00	-4.77E-15	-42.4997	37.454	28.1777	19.9452	23.345	-132.905	45.6879	-1.97924	-18.9957	-3.18E-15	0.00E+00	-4.77E-15	59.0543	52.8591	-43.4753	-40.5202	15.1183	126.046	-44.5954	0.463035	15.5126	35.5185	-20.7583	25.6317	4.98986	27.1991	-8.94558	-20.623	-32.6631	-13.6445	9.54E-15	2.90E-14	9.54E-15
97.491	105.139	-208.564	-0.344275	-32.4782	104.108	-67.3385	-65.5729	-58.2102	58.3661	65.2167	-47.3868	5.25032	4.62864	-30.7007	0.0462048	0.000533964	0.662642	-1.44652	0.129146	0.99663	-2.89512	0.235857	1.99607	8.44214	23.7316	43.8386	1.27E-14	3.18E-15	-4.77E-15	-42.6165	37.6636	28.1347	19.8855	23.5323	-132.902	45.8206	-1.93324	-18.9078	1.27E-14	3.18E-15	-4.77E-15	59.2011	52.6492	-43.7335	-40.6718	14.8782	125.938	-44.593	0.355678	15.6171	33.6417	-20.9071	24.8773	5.08661	27.1437	-9.01976	-20.4814	-33.0166	-14.1063	1.67E-14	3.18E-14	9.54E-15
